<svg width="22" height="22" viewBox="0 0 22 22" fill="none" xmlns="http://www.w3.org/2000/svg">
<path fill-rule="evenodd" clip-rule="evenodd" d="M12.7091 20.2325V18.1818L12.7093 12.7097L20.2325 12.7097C20.459 12.7172 20.6848 12.6797 20.8968 12.5992C21.1122 12.5175 21.3087 12.393 21.4748 12.2335C21.6408 12.0739 21.7729 11.8824 21.8632 11.6705C21.9534 11.4586 22 11.2307 22 11.0003C22 10.7698 21.9534 10.5419 21.8632 10.3301C21.7729 10.1182 21.6408 9.92671 21.4748 9.7671C21.3087 9.60753 21.1122 9.4831 20.8968 9.40132C20.6849 9.32084 20.4591 9.28329 20.2325 9.29086H18.1818L12.7093 9.29058L12.7095 1.76751C12.7171 1.54101 12.6796 1.31519 12.5991 1.1032C12.5173 0.887836 12.3929 0.691279 12.2333 0.525241C12.0737 0.359163 11.8822 0.227056 11.6703 0.136812C11.4585 0.0465946 11.2305 0 11.0001 0C10.7697 0 10.5418 0.0465994 10.3299 0.136812C10.118 0.227056 9.92655 0.359163 9.76694 0.525241C9.60737 0.691279 9.48293 0.887835 9.40116 1.1032C9.32068 1.31513 9.28312 1.54095 9.29069 1.76751L9.29031 3.81824L9.29031 9.2904L1.76751 9.29002C1.54101 9.28245 1.31519 9.31995 1.1032 9.40045C0.887836 9.48223 0.691279 9.60666 0.525241 9.76623C0.359163 9.92584 0.227056 10.1173 0.136812 10.3292C0.0465949 10.5411 0 10.769 0 10.9994C0 11.2298 0.0465997 11.4578 0.136812 11.6696C0.227056 11.8815 0.359163 12.073 0.525241 12.2326C0.691279 12.3922 0.887835 12.5166 1.1032 12.5984C1.31513 12.6788 1.54095 12.7164 1.76751 12.7088L3.81819 12.7097L9.29031 12.7097L9.29031 20.2325C9.28274 20.459 9.32024 20.6848 9.40074 20.8968C9.48252 21.1122 9.60696 21.3087 9.76653 21.4748C9.92614 21.6408 10.1176 21.7729 10.3295 21.8632C10.5414 21.9534 10.7693 22 10.9997 22C11.2301 22 11.4581 21.9534 11.6699 21.8632C11.8818 21.7729 12.0733 21.6408 12.2329 21.4748C12.3925 21.3087 12.5169 21.1122 12.5987 20.8968C12.6791 20.6849 12.7167 20.4591 12.7091 20.2325Z" fill="#7286A7"/>
</svg>
