<svg width="16" height="16" viewBox="0 0 16 16" fill="none" xmlns="http://www.w3.org/2000/svg">
<path d="M6.8 0C5.45509 0 4.14038 0.398813 3.02213 1.14601C1.90387 1.8932 1.0323 2.95521 0.517622 4.19775C0.00294632 5.44029 -0.131716 6.80754 0.130663 8.12661C0.393043 9.44569 1.04068 10.6573 1.99168 11.6083C2.94267 12.5593 4.15432 13.207 5.47339 13.4693C6.79246 13.7317 8.15971 13.5971 9.40225 13.0824C10.6448 12.5677 11.7068 11.6961 12.454 10.5779C13.2012 9.45962 13.6 8.14491 13.6 6.8C13.5987 4.99693 12.8818 3.2681 11.6069 1.99314C10.3319 0.718176 8.60307 0.00132432 6.8 0V0ZM6.8 12.34C5.70345 12.3406 4.63135 12.0159 3.71935 11.4071C2.80735 10.7982 2.09642 9.93257 1.67651 8.9196C1.25661 7.90663 1.14658 6.79187 1.36036 5.71635C1.57415 4.64083 2.10213 3.65289 2.87751 2.87751C3.65289 2.10212 4.64084 1.57414 5.71635 1.36036C6.79187 1.14658 7.90663 1.2566 8.9196 1.67651C9.93258 2.09642 10.7982 2.80734 11.4071 3.71935C12.0159 4.63135 12.3406 5.70344 12.34 6.8C12.3376 8.26857 11.7532 9.67631 10.7147 10.7147C9.67631 11.7532 8.26857 12.3376 6.8 12.34Z" fill="#7286A7"/>
<path d="M15.251 14.364L11.651 10.764C11.5334 10.6464 11.3739 10.5803 11.2075 10.5803C11.0412 10.5803 10.8816 10.6464 10.764 10.764C10.6464 10.8816 10.5803 11.0412 10.5803 11.2075C10.5803 11.3739 10.6464 11.5334 10.764 11.651L14.364 15.251C14.4816 15.3686 14.6412 15.4347 14.8075 15.4347C14.9739 15.4347 15.1334 15.3686 15.251 15.251C15.3686 15.1334 15.4347 14.9739 15.4347 14.8075C15.4347 14.6412 15.3686 14.4816 15.251 14.364Z" fill="#7286A7"/>
</svg>
